<?xml version="1.0" encoding="UTF-8" standalone="no"?>
<!-- Created with Inkscape (http://www.inkscape.org/) -->

<svg
   xmlns:dc="http://purl.org/dc/elements/1.1/"
   xmlns:cc="http://creativecommons.org/ns#"
   xmlns:rdf="http://www.w3.org/1999/02/22-rdf-syntax-ns#"
   xmlns:svg="http://www.w3.org/2000/svg"
   xmlns="http://www.w3.org/2000/svg"
   xmlns:xlink="http://www.w3.org/1999/xlink"
   xmlns:sodipodi="http://sodipodi.sourceforge.net/DTD/sodipodi-0.dtd"
   xmlns:inkscape="http://www.inkscape.org/namespaces/inkscape"
   width="435"
   height="263"
   id="svg2"
   version="1.1"
   inkscape:version="0.47 r22583">
  <g
     inkscape:label="Layer 1"
     inkscape:groupmode="layer"
     id="layer1"
     transform="translate(-419.32671,-322.90326)">
    <path
       style="fill:#aad470;fill-rule:nonzero;stroke:none"
       d="m 636.82224,486.59762 c 87.41634,0 165.56662,8.88763 217.50448,22.85007 -43.79841,-23.76953 -124.79696,-39.72401 -217.50448,-39.72401 -92.69857,0 -173.69712,15.95448 -217.49553,39.72401 51.93785,-13.96244 130.088,-22.85007 217.49553,-22.85007"
       id="path9064" />
    <path
       style="fill:#aad470;fill-rule:nonzero;stroke:none"
       d="m 602.26308,542.88918 c 1.62242,3.16387 2.60497,7.11194 2.60497,11.50167 0,4.32663 -0.98203,8.32886 -2.60497,11.4926 l -21.59727,0 c -1.5684,-3.16374 -2.59603,-7.16597 -2.59603,-11.4926 0,-4.38973 1.02737,-8.3378 2.59603,-11.50167 l 21.59727,0 z m 149.6751,-6.90465 0,11.64586 40.67961,0 -8.1305,13.46677 -32.54911,0 0,12.09658 48.68394,0 0,12.70952 -62.15965,0 0,-24.8061 -26.94247,0 0,24.8061 -14.4041,0 -37.09197,-44.0237 0,44.0237 -14.00766,0 0,-24.8061 -18.45128,0 c -0.78381,9.27526 -3.18188,17.79339 -6.7694,24.8061 l -58.8245,0 c -3.4704,-7.01271 -5.94011,-15.53084 -6.75139,-24.8061 l -46.26812,0 -9.93327,12.09658 42.02259,0 0,12.70952 -68.56849,0 40.95,-49.91873 -37.08303,0 -10.66345,-12.70952 74.29225,0 -19.97459,24.35538 35.26213,0 c 0.84729,-9.15801 3.29913,-17.45072 6.71537,-24.35538 l 58.8245,0 c 3.53337,6.90466 5.91304,15.19737 6.73326,24.35538 l 18.48742,0 0,-24.35538 15.34169,0 36.28977,43.26645 0,-43.26645 13.87227,0 0,24.35538 26.94247,0 0,-24.35538 62.15965,0 0,12.70952 -48.68394,0 z M 613.99912,554.5892 c 0,-6.20156 -1.07272,-12.24985 -3.0737,-17.84755 l -39.08415,0 c -2.00111,5.5977 -3.06476,11.64599 -3.06476,17.84755 0,6.04829 1.06365,12.10553 3.06476,17.85636 l 39.08415,0 c 2.00098,-5.75083 3.0737,-11.80807 3.0737,-17.85636"
       id="path9066" />
    <path
       style="fill:#aad470;fill-rule:nonzero;stroke:none"
       d="m 827.23098,574.8974 2.75824,7.81504 2.74929,-7.81504 3.17281,0 0,10.91582 -2.01005,0 0,-8.80666 -2.97459,8.80666 -1.82984,0 -3.02862,-8.80666 0,8.80666 -2.00111,0 0,-10.91582 3.16387,0 z m -14.323,1.84785 0,-1.84785 9.31128,0 0,1.84785 -3.56951,0 0,9.06797 -2.17226,0 0,-9.06797 -3.56951,0"
       id="path9068" />
    <path
       style="fill:#000000;fill-rule:nonzero;stroke:none"
       d="m 582.05399,449.42442 -33.80204,0 0,-48.2783 -21.93968,0 0,48.2783 -34.70336,0 -0.12956,-124.43641 34.82955,0 0,46.28626 21.93969,0 0,-46.28626 33.80204,0 0,124.43641 z m 154.8761,0.58559 c 34.85662,-0.013 63.22329,-28.97947 63.21423,-63.83609 -0.009,-35.59574 -28.35761,-63.25025 -63.21423,-63.26838 -34.81154,-0.0259 -52.6048,25.59937 -56.99466,35.94735 0.0389,-15.53085 -15.2694,-33.86514 -33.17097,-33.88315 l -57.67962,0 0,124.40933 53.77663,0.013 c 21.68731,0 37.11011,-18.78489 37.13705,-34.89264 4.94863,10.14056 22.12003,35.51463 56.93157,35.50557 z M 638.3545,399.38818 c 4.9757,0 8.89669,4.91261 8.89669,10.51018 0,5.59757 -3.92099,10.51018 -8.89669,10.51018 l -17.09924,0 0,-21.02036 17.09924,0 z m 0.0648,-46.71884 c 4.97571,0 8.8967,4.91261 8.8967,10.51925 0,5.59757 -3.92099,10.51018 -8.8967,10.51018 l -17.09924,0 0,-21.02943 17.09924,0 z m 22.76911,33.53165 c 3.92099,-0.49619 10.44708,-4.9757 12.7546,-7.84211 -0.81102,3.5515 -0.8745,13.81825 0.0777,17.36068 -2.62298,-4.04718 -8.84255,-9.02289 -12.82663,-9.51857 z m 44.09573,0 c 0,-17.487 14.1788,-31.6658 31.6658,-31.6658 17.49581,0 31.67461,14.1788 31.67461,31.6658 0,17.48687 -14.1788,31.66568 -31.67461,31.66568 -17.487,0 -31.6658,-14.17881 -31.6658,-31.66568 z m 31.6658,24.89628 c 13.75503,0 24.89627,-11.15019 24.89627,-24.89628 0,-13.75515 -11.14124,-24.8964 -24.89627,-24.8964 -13.74621,0 -24.8964,11.14125 -24.8964,24.8964 0,13.74609 11.15019,24.89628 24.8964,24.89628"
       id="path9070" />
  </g>
</svg>
